#N canvas 44 25 1396 847 12;
#X floatatom 135 133 5 0 0 0 - - -;
#X obj 195 134 hsl 64 15 0 1 0 0 empty empty empty -2 -8 0 10 -262144
-1 -1 0 1;
#X obj 100 489 freqMod, f 22;
#X obj 113 133 tgl 15 0 empty empty empty 17 7 0 10 -262144 -1 -1 0
1;
#X obj 192 331 blockSize;
#X obj 60 397 inlet~;
#X obj 101 561 throw~ outModMaster;
#X obj 146 711 catch~ outModMaster;
#X obj 146 748 outlet~;
#X msg 627 55 63;
#X obj 411 494 freqMod, f 22;
#X obj 412 566 throw~ outModMaster;
#X obj 733 499 freqMod, f 22;
#X obj 734 571 throw~ outModMaster;
#X obj 1044 504 freqMod, f 22;
#X obj 1045 576 throw~ outModMaster;
#X obj 418 652 freqMod, f 22;
#X obj 419 722 throw~ outModMaster;
#X obj 740 657 freqMod, f 22;
#X obj 741 727 throw~ outModMaster;
#X obj 1051 662 freqMod, f 22;
#X obj 1052 732 throw~ outModMaster;
#X floatatom 135 163 5 0 0 0 - - -;
#X obj 195 164 hsl 64 15 0 1 0 0 empty empty empty -2 -8 0 10 -262144
-1 -1 0 1;
#X obj 113 163 tgl 15 0 empty empty empty 17 7 0 10 -262144 -1 -1 0
1;
#X floatatom 135 191 5 0 0 0 - - -;
#X obj 195 192 hsl 64 15 0 1 0 0 empty empty empty -2 -8 0 10 -262144
-1 -1 0 1;
#X obj 113 191 tgl 15 0 empty empty empty 17 7 0 10 -262144 -1 -1 0
1;
#X floatatom 135 221 5 0 0 0 - - -;
#X obj 195 222 hsl 64 15 0 1 0 0 empty empty empty -2 -8 0 10 -262144
-1 -1 0 1;
#X obj 113 221 tgl 15 0 empty empty empty 17 7 0 10 -262144 -1 -1 0
1;
#X floatatom 135 251 5 0 0 0 - - -;
#X obj 195 252 hsl 64 15 0 1 0 0 empty empty empty -2 -8 0 10 -262144
-1 -1 0 1;
#X obj 113 251 tgl 15 0 empty empty empty 17 7 0 10 -262144 -1 -1 0
1;
#X floatatom 135 279 5 0 0 0 - - -;
#X obj 195 280 hsl 64 15 0 1 0 0 empty empty empty -2 -8 0 10 -262144
-1 -1 0 1;
#X obj 113 279 tgl 15 0 empty empty empty 17 7 0 10 -262144 -1 -1 0
1;
#X floatatom 135 309 5 0 0 0 - - -;
#X obj 195 310 hsl 64 15 0 1 0 0 empty empty empty -2 -8 0 10 -262144
-1 -1 0 1;
#X obj 113 309 tgl 15 0 empty empty empty 17 7 0 10 -262144 -1 -1 0
1;
#X obj 723 27 loadbang;
#X msg 626 83 160;
#X msg 626 114 400;
#X msg 625 142 1000;
#X msg 626 173 2500;
#X msg 626 204 6250;
#X msg 625 232 16000;
#X obj 195 109 hsl 64 15 0 1 0 0 empty empty index -2 8 0 10 -262144
-1 -1 0 1;
#X obj 113 335 tgl 15 0 empty empty empty 17 7 0 10 -262144 -1 -1 0
1;
#X obj 99 527 *~;
#X obj 432 528 *~;
#X obj 747 537 *~;
#X obj 1052 541 *~;
#X obj 424 687 *~;
#X obj 746 695 *~;
#X obj 1051 699 *~;
#X obj 275 134 hsl 64 15 0 1 0 0 empty empty empty -2 -8 0 10 -262144
-1 -1 3150 1;
#X obj 275 164 hsl 64 15 0 1 0 0 empty empty empty -2 -8 0 10 -262144
-1 -1 3150 1;
#X obj 275 192 hsl 64 15 0 1 0 0 empty empty empty -2 -8 0 10 -262144
-1 -1 3150 1;
#X obj 275 222 hsl 64 15 0 1 0 0 empty empty empty -2 -8 0 10 -262144
-1 -1 3150 1;
#X obj 275 252 hsl 64 15 0 1 0 0 empty empty empty -2 -8 0 10 -262144
-1 -1 3150 1;
#X obj 275 280 hsl 64 15 0 1 0 0 empty empty empty -2 -8 0 10 -262144
-1 -1 3150 1;
#X obj 275 310 hsl 64 15 0 1 0 0 empty empty empty -2 -8 0 10 -262144
-1 -1 3150 1;
#X obj 275 109 hsl 64 15 0 1 0 0 empty empty gain -2 8 0 10 -262144
-1 -1 3150 1;
#X msg 496 55 0.5;
#X obj 26 56 inlet;
#X connect 0 0 2 1;
#X connect 1 0 2 2;
#X connect 2 0 49 0;
#X connect 3 0 2 3;
#X connect 3 0 4 0;
#X connect 4 0 2 4;
#X connect 4 0 16 4;
#X connect 4 0 10 4;
#X connect 4 0 12 4;
#X connect 4 0 18 4;
#X connect 4 0 14 4;
#X connect 4 0 20 4;
#X connect 5 0 2 0;
#X connect 5 0 10 0;
#X connect 5 0 12 0;
#X connect 5 0 14 0;
#X connect 5 0 16 0;
#X connect 5 0 18 0;
#X connect 5 0 20 0;
#X connect 7 0 8 0;
#X connect 9 0 0 0;
#X connect 10 0 50 0;
#X connect 12 0 51 0;
#X connect 14 0 52 0;
#X connect 16 0 53 0;
#X connect 18 0 54 0;
#X connect 20 0 55 0;
#X connect 22 0 10 1;
#X connect 23 0 10 2;
#X connect 24 0 10 3;
#X connect 24 0 4 0;
#X connect 25 0 12 1;
#X connect 26 0 12 2;
#X connect 27 0 12 3;
#X connect 27 0 4 0;
#X connect 28 0 14 1;
#X connect 29 0 14 2;
#X connect 30 0 14 3;
#X connect 30 0 4 0;
#X connect 31 0 16 1;
#X connect 32 0 16 2;
#X connect 33 0 16 3;
#X connect 33 0 4 0;
#X connect 34 0 18 1;
#X connect 35 0 18 2;
#X connect 36 0 18 3;
#X connect 36 0 4 0;
#X connect 37 0 20 1;
#X connect 38 0 20 2;
#X connect 39 0 20 3;
#X connect 39 0 4 0;
#X connect 40 0 9 0;
#X connect 40 0 41 0;
#X connect 40 0 42 0;
#X connect 40 0 44 0;
#X connect 40 0 43 0;
#X connect 40 0 45 0;
#X connect 40 0 46 0;
#X connect 40 0 64 0;
#X connect 41 0 22 0;
#X connect 42 0 25 0;
#X connect 43 0 28 0;
#X connect 44 0 31 0;
#X connect 45 0 34 0;
#X connect 46 0 37 0;
#X connect 47 0 1 0;
#X connect 47 0 23 0;
#X connect 47 0 26 0;
#X connect 47 0 29 0;
#X connect 47 0 32 0;
#X connect 47 0 35 0;
#X connect 47 0 38 0;
#X connect 48 0 39 0;
#X connect 48 0 36 0;
#X connect 48 0 33 0;
#X connect 48 0 30 0;
#X connect 48 0 27 0;
#X connect 48 0 24 0;
#X connect 48 0 3 0;
#X connect 48 0 4 0;
#X connect 49 0 6 0;
#X connect 50 0 11 0;
#X connect 51 0 13 0;
#X connect 52 0 15 0;
#X connect 53 0 17 0;
#X connect 54 0 19 0;
#X connect 55 0 21 0;
#X connect 56 0 49 1;
#X connect 57 0 50 1;
#X connect 58 0 51 1;
#X connect 59 0 52 1;
#X connect 60 0 53 1;
#X connect 61 0 54 1;
#X connect 62 0 55 1;
#X connect 63 0 56 0;
#X connect 63 0 57 0;
#X connect 63 0 58 0;
#X connect 63 0 59 0;
#X connect 63 0 60 0;
#X connect 63 0 61 0;
#X connect 63 0 62 0;
#X connect 64 0 63 0;
#X connect 65 0 3 0;
#X connect 65 0 24 0;
#X connect 65 0 27 0;
#X connect 65 0 30 0;
#X connect 65 0 33 0;
#X connect 65 0 36 0;
#X connect 65 0 39 0;
#X coords 0 -1 1 1 250 280 1 100 100;
