#N canvas 394 42 1396 847 12;
#X floatatom 135 133 5 0 0 0 - - -;
#X obj 195 134 hsl 64 15 0 1 0 0 empty empty empty -2 -8 0 10 -262144
-1 -1 5000 1;
#X obj 113 133 tgl 15 0 empty empty empty 17 7 0 10 -262144 -1 -1 0
1;
#X obj 192 331 blockSize;
#X obj 60 397 inlet~;
#X obj 146 748 outlet~;
#X msg 627 55 63;
#X floatatom 135 163 5 0 0 0 - - -;
#X obj 195 164 hsl 64 15 0 1 0 0 empty empty empty -2 -8 0 10 -262144
-1 -1 0 1;
#X obj 113 163 tgl 15 0 empty empty empty 17 7 0 10 -262144 -1 -1 0
1;
#X floatatom 135 191 5 0 0 0 - - -;
#X obj 195 192 hsl 64 15 0 1 0 0 empty empty empty -2 -8 0 10 -262144
-1 -1 4594 1;
#X obj 113 191 tgl 15 0 empty empty empty 17 7 0 10 -262144 -1 -1 0
1;
#X floatatom 135 221 5 0 0 0 - - -;
#X obj 195 222 hsl 64 15 0 1 0 0 empty empty empty -2 -8 0 10 -262144
-1 -1 0 1;
#X obj 113 221 tgl 15 0 empty empty empty 17 7 0 10 -262144 -1 -1 0
1;
#X floatatom 135 251 5 0 0 0 - - -;
#X obj 195 252 hsl 64 15 0 1 0 0 empty empty empty -2 -8 0 10 -262144
-1 -1 2294 1;
#X obj 113 251 tgl 15 0 empty empty empty 17 7 0 10 -262144 -1 -1 0
1;
#X floatatom 135 279 5 0 0 0 - - -;
#X obj 195 280 hsl 64 15 0 1 0 0 empty empty empty -2 -8 0 10 -262144
-1 -1 4158 1;
#X obj 113 279 tgl 15 0 empty empty empty 17 7 0 10 -262144 -1 -1 1
1;
#X floatatom 135 309 5 0 0 0 - - -;
#X obj 195 310 hsl 64 15 0 1 0 0 empty empty empty -2 -8 0 10 -262144
-1 -1 1197 1;
#X obj 113 309 tgl 15 0 empty empty empty 17 7 0 10 -262144 -1 -1 0
1;
#X obj 762 9 loadbang;
#X msg 626 83 160;
#X msg 626 114 400;
#X msg 625 142 1000;
#X msg 626 173 2500;
#X msg 626 204 6250;
#X msg 625 232 16000;
#X obj 27 57 r tMaster;
#X obj 194 109 hsl 64 15 0 1 0 0 empty empty Fm -2 8 0 10 -262144 -1
-1 0 1;
#X obj 113 335 tgl 15 0 empty empty empty 17 7 0 10 -262144 -1 -1 1
1;
#X obj 275 134 hsl 64 15 0 1 0 0 empty empty empty -2 -8 0 10 -262144
-1 -1 4300 1;
#X obj 275 164 hsl 64 15 0 1 0 0 empty empty empty -2 -8 0 10 -262144
-1 -1 0 1;
#X obj 275 192 hsl 64 15 0 1 0 0 empty empty empty -2 -8 0 10 -262144
-1 -1 2597 1;
#X obj 275 222 hsl 64 15 0 1 0 0 empty empty empty -2 -8 0 10 -262144
-1 -1 0 1;
#X obj 275 252 hsl 64 15 0 1 0 0 empty empty empty -2 -8 0 10 -262144
-1 -1 3897 1;
#X obj 275 280 hsl 64 15 0 1 0 0 empty empty empty -2 -8 0 10 -262144
-1 -1 5594 1;
#X obj 275 310 hsl 64 15 0 1 0 0 empty empty empty -2 -8 0 10 -262144
-1 -1 2696 1;
#X obj 275 109 hsl 64 15 0 1 0 0 empty empty Am -2 8 0 10 -262144 -1
-1 0 1;
#X obj 100 489 AFmod, f 22;
#X obj 411 494 AFmod, f 22;
#X obj 733 499 AFmod, f 22;
#X obj 1044 504 AFmod, f 22;
#X obj 418 651 AFmod, f 22;
#X obj 740 656 AFmod, f 22;
#X obj 1051 662 AFmod, f 22;
#X obj 101 574 throw~ outAFMaster;
#X obj 413 579 throw~ outAFMaster;
#X obj 736 583 throw~ outAFMaster;
#X obj 1042 594 throw~ outAFMaster;
#X obj 1052 756 throw~ outAFMaster;
#X obj 741 746 throw~ outAFMaster;
#X obj 419 740 throw~ outAFMaster;
#X obj 146 711 catch~ outAFMaster;
#X obj 354 134 hsl 64 15 0 1 0 0 empty empty empty -2 -8 0 10 -262144
-1 -1 6300 1;
#X obj 354 164 hsl 64 15 0 1 0 0 empty empty empty -2 -8 0 10 -262144
-1 -1 600 1;
#X obj 354 192 hsl 64 15 0 1 0 0 empty empty empty -2 -8 0 10 -262144
-1 -1 300 1;
#X obj 356 222 hsl 64 15 0 1 0 0 empty empty empty -2 -8 0 10 -262144
-1 -1 0 1;
#X obj 356 251 hsl 64 15 0 1 0 0 empty empty empty -2 -8 0 10 -262144
-1 -1 100 1;
#X obj 354 280 hsl 64 15 0 1 0 0 empty empty empty -2 -8 0 10 -262144
-1 -1 598 1;
#X obj 354 310 hsl 64 15 0 1 0 0 empty empty empty -2 -8 0 10 -262144
-1 -1 3900 1;
#X obj 354 109 hsl 64 15 0 1 0 0 empty empty gain -2 8 0 10 -262144
-1 -1 0 1;
#X obj 411 530 *~;
#X obj 103 534 *~;
#X obj 737 550 *~;
#X obj 1044 546 *~;
#X obj 418 687 *~;
#X obj 740 690 *~;
#X obj 1051 703 *~;
#X floatatom 850 238 5 0 0 0 - - -;
#X floatatom 896 238 5 0 0 0 - - -;
#X floatatom 943 239 5 0 0 0 - - -;
#X floatatom 850 266 5 0 0 0 - - -;
#X floatatom 896 266 5 0 0 0 - - -;
#X floatatom 943 267 5 0 0 0 - - -;
#X floatatom 851 293 5 0 0 0 - - -;
#X floatatom 897 293 5 0 0 0 - - -;
#X floatatom 944 294 5 0 0 0 - - -;
#X floatatom 854 324 5 0 0 0 - - -;
#X floatatom 900 324 5 0 0 0 - - -;
#X floatatom 947 325 5 0 0 0 - - -;
#X floatatom 856 354 5 0 0 0 - - -;
#X floatatom 902 354 5 0 0 0 - - -;
#X floatatom 949 355 5 0 0 0 - - -;
#X msg 931 51 0.984;
#X msg 974 52 0.587;
#X msg 1016 51 0.873;
#X msg 931 80 0.761;
#X msg 974 79 0.317;
#X msg 1018 79 0.079;
#X msg 931 112 0.253;
#X msg 976 112 0.682;
#X msg 1020 111 0.047;
#X msg 933 170 0.317;
#X msg 980 167 0.428;
#X msg 1028 166 0.857;
#X msg 931 140 0.66;
#X msg 1017 139 0.095;
#X msg 977 140 0.888;
#X connect 0 0 43 1;
#X connect 1 0 43 2;
#X connect 1 0 73 0;
#X connect 2 0 3 0;
#X connect 2 0 43 3;
#X connect 3 0 43 4;
#X connect 3 0 44 4;
#X connect 3 0 45 4;
#X connect 3 0 46 4;
#X connect 3 0 47 4;
#X connect 3 0 48 4;
#X connect 3 0 49 4;
#X connect 4 0 43 0;
#X connect 4 0 44 0;
#X connect 4 0 45 0;
#X connect 4 0 46 0;
#X connect 4 0 47 0;
#X connect 4 0 48 0;
#X connect 4 0 49 0;
#X connect 6 0 0 0;
#X connect 7 0 44 1;
#X connect 8 0 44 2;
#X connect 9 0 3 0;
#X connect 9 0 44 3;
#X connect 10 0 45 1;
#X connect 11 0 45 2;
#X connect 11 0 76 0;
#X connect 12 0 3 0;
#X connect 12 0 45 3;
#X connect 13 0 46 1;
#X connect 14 0 46 2;
#X connect 15 0 3 0;
#X connect 15 0 46 3;
#X connect 16 0 47 1;
#X connect 17 0 47 2;
#X connect 17 0 79 0;
#X connect 18 0 3 0;
#X connect 18 0 47 3;
#X connect 19 0 48 1;
#X connect 20 0 48 2;
#X connect 20 0 82 0;
#X connect 21 0 3 0;
#X connect 21 0 48 3;
#X connect 22 0 49 1;
#X connect 23 0 49 2;
#X connect 23 0 85 0;
#X connect 24 0 3 0;
#X connect 24 0 49 3;
#X connect 25 0 6 0;
#X connect 25 0 26 0;
#X connect 25 0 27 0;
#X connect 25 0 29 0;
#X connect 25 0 28 0;
#X connect 25 0 30 0;
#X connect 25 0 31 0;
#X connect 25 0 88 0;
#X connect 25 0 89 0;
#X connect 25 0 90 0;
#X connect 25 0 91 0;
#X connect 25 0 92 0;
#X connect 25 0 93 0;
#X connect 25 0 94 0;
#X connect 25 0 95 0;
#X connect 25 0 96 0;
#X connect 25 0 100 0;
#X connect 25 0 102 0;
#X connect 25 0 101 0;
#X connect 25 0 97 0;
#X connect 25 0 98 0;
#X connect 25 0 99 0;
#X connect 26 0 7 0;
#X connect 27 0 10 0;
#X connect 28 0 13 0;
#X connect 29 0 16 0;
#X connect 30 0 19 0;
#X connect 31 0 22 0;
#X connect 32 0 2 0;
#X connect 32 0 12 0;
#X connect 32 0 18 0;
#X connect 32 0 21 0;
#X connect 32 0 24 0;
#X connect 33 0 1 0;
#X connect 33 0 8 0;
#X connect 33 0 11 0;
#X connect 33 0 14 0;
#X connect 33 0 17 0;
#X connect 33 0 20 0;
#X connect 33 0 23 0;
#X connect 34 0 24 0;
#X connect 34 0 21 0;
#X connect 34 0 18 0;
#X connect 34 0 15 0;
#X connect 34 0 12 0;
#X connect 34 0 9 0;
#X connect 34 0 2 0;
#X connect 34 0 3 0;
#X connect 35 0 43 5;
#X connect 35 0 74 0;
#X connect 36 0 44 5;
#X connect 37 0 45 5;
#X connect 37 0 77 0;
#X connect 38 0 46 5;
#X connect 39 0 47 5;
#X connect 39 0 80 0;
#X connect 40 0 48 5;
#X connect 40 0 83 0;
#X connect 41 0 49 5;
#X connect 41 0 86 0;
#X connect 42 0 35 0;
#X connect 42 0 36 0;
#X connect 42 0 37 0;
#X connect 42 0 38 0;
#X connect 42 0 39 0;
#X connect 42 0 40 0;
#X connect 42 0 41 0;
#X connect 43 0 67 0;
#X connect 44 0 66 0;
#X connect 45 0 68 0;
#X connect 46 0 69 0;
#X connect 47 0 70 0;
#X connect 48 0 71 0;
#X connect 49 0 72 0;
#X connect 57 0 5 0;
#X connect 58 0 67 1;
#X connect 58 0 75 0;
#X connect 59 0 66 1;
#X connect 60 0 68 1;
#X connect 60 0 78 0;
#X connect 61 0 69 1;
#X connect 62 0 70 1;
#X connect 62 0 81 0;
#X connect 63 0 71 1;
#X connect 63 0 84 0;
#X connect 64 0 72 1;
#X connect 64 0 87 0;
#X connect 65 0 58 0;
#X connect 65 0 59 0;
#X connect 65 0 60 0;
#X connect 65 0 61 0;
#X connect 65 0 62 0;
#X connect 65 0 63 0;
#X connect 65 0 64 0;
#X connect 66 0 51 0;
#X connect 67 0 50 0;
#X connect 68 0 52 0;
#X connect 69 0 53 0;
#X connect 70 0 56 0;
#X connect 71 0 55 0;
#X connect 72 0 54 0;
#X connect 88 0 1 0;
#X connect 89 0 35 0;
#X connect 90 0 58 0;
#X connect 91 0 11 0;
#X connect 92 0 37 0;
#X connect 93 0 60 0;
#X connect 94 0 17 0;
#X connect 95 0 39 0;
#X connect 96 0 62 0;
#X connect 97 0 23 0;
#X connect 98 0 41 0;
#X connect 99 0 64 0;
#X connect 100 0 20 0;
#X connect 101 0 63 0;
#X connect 102 0 40 0;
#X coords 0 -1 1 1 330 280 1 100 100;
