#N canvas 44 25 450 300 12;
#X obj 283 161 pow;
#X obj 283 126 2;
#X obj 312 126 t b f;
#X obj 312 103 + 6;
#X floatatom 190 102 5 0 0 0 - - -;
#X obj 282 232 outlet;
#X obj 105 124 hradio 15 1 0 8 empty empty empty 0 -8 0 10 -262144
-1 -1 4;
#X obj 270 41 loadbang;
#X msg 264 73 0;
#X obj 42 33 inlet;
#X obj 49 69 bng 15 250 50 0 empty empty empty 17 7 0 10 -262144 -1
-1;
#X connect 0 0 4 0;
#X connect 0 0 5 0;
#X connect 1 0 0 0;
#X connect 2 0 1 0;
#X connect 2 1 0 1;
#X connect 3 0 2 0;
#X connect 6 0 3 0;
#X connect 7 0 8 0;
#X connect 8 0 6 0;
#X connect 9 0 10 0;
#X connect 10 0 6 0;
#X coords 0 -1 1 1 130 40 1 100 100;
