#N canvas 44 25 1287 806 12;
#X obj 115 126 tgl 15 0 bool_contact empty bool_contact 17 7 0 10 -261234
-1 -1 1 1;
#X obj 117 149 hsl 128 15 0 1 0 0 empty empty amplitud_contact 8 8
0 10 -261234 -1 -1 0 1;
#X obj 98 63 inlet;
#X obj 286 29 inlet;
#X obj 484 177 hsl 128 15 10 2000 1 0 grain_rate empty grain_rate 30
8 0 10 -261682 -1 -1 6092 1;
#X obj 484 346 hsl 128 15 20 2000 0 1 grain_duration empty grain_duration
30 8 0 10 -262130 -1 -1 1155 1;
#X obj 483 499 hsl 128 15 0.1 2 0 0 transpose empty transpose 30 8
0 10 -204800 -1 -1 10494 1;
#X obj 732 176 hsl 128 15 3 200 0 0 1-q empty Q_filters_1 10 8 0 10
-204786 -1 -1 10121 1;
#X obj 975 343 hsl 128 15 0.1 1 0 0 Clipping empty Clipping 10 8 0
10 -261234 -1 -1 12700 1;
#X obj 485 638 hsl 128 15 0 1 0 0 gainNoise empty gainNoise 10 8 0
10 -203904 -1 -1 1270 1;
#X obj 731 342 hsl 128 15 0 5 0 0 1-gainFilteredSignal empty gainFilteredSignal_1
8 8 0 10 -203904 -1 -1 7620 1;
#X obj 163 483 hsl 128 15 20 2000 0 0 empty 1-Fundamental_freq Fundamental_freq_1
10 8 0 10 -204786 -1 -1 0 1;
#X obj 732 201 hsl 128 15 3 200 0 0 2-q empty Q_filters_2 10 8 0 10
-204786 -1 -1 10121 1;
#X obj 731 498 hsl 128 15 0 5 0 0 2-gainFilteredSignal empty gainFilteredSignal_2
6 8 0 10 -203904 -1 -1 6604 1;
#X obj 162 594 hsl 128 15 20 2000 0 0 2-Fundamental_freq empty Fundamental_freq_2
10 8 0 10 -204786 -1 -1 0 1;
#X obj 976 176 hsl 128 15 20 4000 0 0 FilterOutFreq empty FilterOutFreq
10 8 0 10 -261234 -1 -1 12700 1;
#X obj 480 150 scale_, f 19;
#X msg 513 125 0;
#X msg 546 125 1;
#X obj 513 97 loadbang;
#X floatatom 628 177 5 0 0 0 - - -;
#X floatatom 628 344 5 0 0 0 - - -;
#X floatatom 629 496 5 0 0 0 - - -;
#X floatatom 636 637 5 0 0 0 - - -;
#X floatatom 885 174 5 0 0 0 - - -;
#X floatatom 883 340 5 0 0 0 - - -;
#X floatatom 316 494 5 0 0 0 - - -;
#X floatatom 886 199 5 0 0 0 - - -;
#X floatatom 884 500 5 0 0 0 - - -;
#X floatatom 319 604 5 0 0 0 - - -;
#X floatatom 1129 175 5 0 0 0 - - -;
#X floatatom 1124 344 5 0 0 0 - - -;
#X obj 223 185 * 999;
#X obj 223 209 + 1;
#X floatatom 114 261 5 0 0 0 lin - -;
#X obj 223 232 log 1000;
#X floatatom 114 334 5 0 0 0 log - -;
#X obj 183 232 sqrt;
#X floatatom 115 309 5 0 0 0 sqr - -;
#X obj 123 183 exp;
#X floatatom 115 286 5 0 0 0 exp - -;
#X obj 123 207 - 1;
#X obj 123 232 / 1.718;
#X obj 159 286 s expRef;
#X obj 159 261 s linRef;
#X obj 159 309 s sqrRef;
#X obj 159 334 s logRef;
#X msg 579 125 127;
#X msg 612 125 10;
#X obj 482 72 r expRef;
#X obj 481 97 *;
#X obj 546 72 r bool_contact;
#X obj 481 315 scale_, f 19;
#X msg 513 290 0;
#X msg 546 290 1;
#X obj 513 262 loadbang;
#X obj 481 237 r expRef;
#X obj 481 262 *;
#X obj 546 237 r bool_contact;
#X msg 579 290 200;
#X obj 480 472 scale_, f 19;
#X msg 512 447 0;
#X msg 545 447 1;
#X obj 512 419 loadbang;
#X obj 480 419 *;
#X obj 545 394 r bool_contact;
#X msg 578 447 1.67;
#X msg 621 446 1;
#X obj 480 394 r logRef;
#X obj 481 613 scale_, f 19;
#X msg 513 588 0;
#X msg 546 588 1;
#X obj 400 516 loadbang;
#X obj 481 560 *;
#X obj 546 535 r bool_contact;
#X obj 481 535 r logRef;
#X msg 579 588 0.1;
#X msg 622 587 0.3;
#X obj 729 147 scale_, f 19;
#X msg 761 122 0;
#X msg 794 122 1;
#X obj 761 94 loadbang;
#X obj 729 94 *;
#X obj 794 69 r bool_contact;
#X msg 827 122 160;
#X msg 860 122 9;
#X obj 730 69 r sqrRef;
#X obj 728 315 scale_, f 19;
#X msg 760 290 0;
#X msg 793 290 1;
#X obj 760 262 loadbang;
#X obj 728 262 *;
#X obj 793 237 r bool_contact;
#X msg 859 290 4.5;
#X obj 728 468 scale_, f 19;
#X msg 760 443 0;
#X msg 793 443 1;
#X obj 760 415 loadbang;
#X obj 728 415 *;
#X obj 793 390 r bool_contact;
#X obj 729 237 r expRef;
#X obj 729 390 r expRef;
#X obj 973 146 scale_, f 19;
#X msg 1005 121 0;
#X msg 1038 121 1;
#X obj 1005 93 loadbang;
#X obj 973 93 *;
#X obj 1038 68 r bool_contact;
#X msg 1071 121 4000;
#X obj 974 68 r expRef;
#X obj 972 318 scale_, f 19;
#X msg 1004 293 0;
#X msg 1037 293 1;
#X obj 1004 265 loadbang;
#X obj 1037 240 r bool_contact;
#X obj 973 239 r linRef;
#X msg 1069 293 1;
#X msg 1103 293 0.6;
#X msg 612 290 1560;
#X msg 826 290 3;
#X msg 826 442 2.6;
#X msg 859 443 4.2;
#X msg 1103 121 1050;
#X obj 950 725 hsl 128 15 1 1000 1 0 partialsGain empty partials_gain
30 8 0 10 -261682 -1 -1 12700 1;
#X obj 980 644 scale_, f 19;
#X msg 1012 619 0;
#X msg 1045 619 1;
#X obj 1012 591 loadbang;
#X floatatom 1094 725 5 0 0 0 - - -;
#X obj 980 591 *;
#X obj 1045 566 r bool_contact;
#X msg 1119 619 1;
#X msg 1078 619 0.001;
#X obj 981 565 r linRef;
#X obj 947 700 /;
#X obj 980 673 t b f;
#X obj 947 676 1;
#X obj 282 95 scale_, f 19;
#X msg 315 70 0;
#X msg 348 70 1;
#X msg 381 70 0;
#X msg 414 70 0.5;
#X obj 365 26 loadbang;
#X connect 1 0 32 0;
#X connect 1 0 34 0;
#X connect 1 0 37 0;
#X connect 1 0 39 0;
#X connect 1 0 44 0;
#X connect 2 0 0 0;
#X connect 3 0 137 0;
#X connect 4 0 20 0;
#X connect 5 0 21 0;
#X connect 6 0 22 0;
#X connect 7 0 24 0;
#X connect 8 0 31 0;
#X connect 9 0 23 0;
#X connect 10 0 25 0;
#X connect 11 0 26 0;
#X connect 12 0 27 0;
#X connect 13 0 28 0;
#X connect 14 0 29 0;
#X connect 15 0 30 0;
#X connect 16 0 4 0;
#X connect 17 0 16 1;
#X connect 18 0 16 2;
#X connect 19 0 17 0;
#X connect 19 0 18 0;
#X connect 19 0 47 0;
#X connect 19 0 48 0;
#X connect 32 0 33 0;
#X connect 33 0 35 0;
#X connect 35 0 36 0;
#X connect 35 0 46 0;
#X connect 37 0 38 0;
#X connect 37 0 45 0;
#X connect 39 0 41 0;
#X connect 41 0 42 0;
#X connect 42 0 40 0;
#X connect 42 0 43 0;
#X connect 47 0 16 3;
#X connect 48 0 16 4;
#X connect 49 0 50 0;
#X connect 50 0 16 0;
#X connect 51 0 50 1;
#X connect 52 0 5 0;
#X connect 53 0 52 1;
#X connect 54 0 52 2;
#X connect 55 0 53 0;
#X connect 55 0 54 0;
#X connect 55 0 59 0;
#X connect 55 0 118 0;
#X connect 56 0 57 0;
#X connect 57 0 52 0;
#X connect 58 0 57 1;
#X connect 59 0 52 3;
#X connect 60 0 6 0;
#X connect 61 0 60 1;
#X connect 62 0 60 2;
#X connect 63 0 61 0;
#X connect 63 0 62 0;
#X connect 63 0 66 0;
#X connect 63 0 67 0;
#X connect 64 0 60 0;
#X connect 65 0 64 1;
#X connect 66 0 60 3;
#X connect 67 0 60 4;
#X connect 68 0 64 0;
#X connect 69 0 9 0;
#X connect 70 0 69 1;
#X connect 71 0 69 2;
#X connect 72 0 70 0;
#X connect 72 0 71 0;
#X connect 72 0 76 0;
#X connect 72 0 77 0;
#X connect 73 0 69 0;
#X connect 74 0 73 1;
#X connect 75 0 73 0;
#X connect 76 0 69 3;
#X connect 77 0 69 4;
#X connect 78 0 7 0;
#X connect 78 0 12 0;
#X connect 79 0 78 1;
#X connect 80 0 78 2;
#X connect 81 0 79 0;
#X connect 81 0 80 0;
#X connect 81 0 84 0;
#X connect 81 0 85 0;
#X connect 82 0 78 0;
#X connect 83 0 82 1;
#X connect 84 0 78 3;
#X connect 85 0 78 4;
#X connect 86 0 82 0;
#X connect 87 0 10 0;
#X connect 88 0 87 1;
#X connect 89 0 87 2;
#X connect 90 0 88 0;
#X connect 90 0 89 0;
#X connect 90 0 119 0;
#X connect 90 0 93 0;
#X connect 91 0 87 0;
#X connect 92 0 91 1;
#X connect 93 0 87 4;
#X connect 94 0 13 0;
#X connect 95 0 94 1;
#X connect 96 0 94 2;
#X connect 97 0 95 0;
#X connect 97 0 96 0;
#X connect 97 0 120 0;
#X connect 97 0 121 0;
#X connect 98 0 94 0;
#X connect 99 0 98 1;
#X connect 100 0 91 0;
#X connect 101 0 98 0;
#X connect 102 0 15 0;
#X connect 103 0 102 1;
#X connect 104 0 102 2;
#X connect 105 0 103 0;
#X connect 105 0 104 0;
#X connect 105 0 108 0;
#X connect 105 0 122 0;
#X connect 106 0 102 0;
#X connect 107 0 106 1;
#X connect 108 0 102 3;
#X connect 109 0 106 0;
#X connect 110 0 8 0;
#X connect 111 0 110 1;
#X connect 112 0 110 2;
#X connect 113 0 111 0;
#X connect 113 0 112 0;
#X connect 113 0 116 0;
#X connect 113 0 117 0;
#X connect 115 0 110 0;
#X connect 116 0 110 3;
#X connect 117 0 110 4;
#X connect 118 0 52 4;
#X connect 119 0 87 3;
#X connect 120 0 94 3;
#X connect 121 0 94 4;
#X connect 122 0 102 4;
#X connect 123 0 128 0;
#X connect 124 0 135 0;
#X connect 125 0 124 1;
#X connect 126 0 124 2;
#X connect 127 0 125 0;
#X connect 127 0 126 0;
#X connect 127 0 132 0;
#X connect 127 0 131 0;
#X connect 129 0 124 0;
#X connect 130 0 129 1;
#X connect 131 0 124 4;
#X connect 132 0 124 3;
#X connect 133 0 129 0;
#X connect 134 0 123 0;
#X connect 135 0 136 0;
#X connect 135 1 134 1;
#X connect 136 0 134 0;
#X connect 137 0 1 0;
#X connect 138 0 137 1;
#X connect 139 0 137 2;
#X connect 140 0 137 3;
#X connect 141 0 137 4;
#X connect 142 0 138 0;
#X connect 142 0 139 0;
#X connect 142 0 140 0;
#X connect 142 0 141 0;
#X coords 0 -1 1 1 160 70 1 100 100;
