#N canvas 569 170 600 531 12;
#X obj 129 184 sig~;
#X obj 110 237 vcf~ 1;
#X obj 150 442 *~;
#X obj 232 408 line;
#X obj 110 85 inlet~;
#X obj 130 119 inlet;
#X obj 234 120 inlet;
#X obj 149 484 outlet~;
#X obj 129 153 * 3;
#X obj 232 349 pack f f;
#X msg 232 379 \$1 \$2;
#X obj 307 347 r rampTime;
#X obj 149 212 r \$1-q;
#X obj 233 213 pow;
#X floatatom 285 213 5 0 0 0 - - -;
#X obj 293 130 r partialsGain;
#X obj 293 174 t b f;
#X obj 232 305 /;
#X obj 232 257 t b f;
#X obj 232 281 1;
#X floatatom 299 320 5 0 0 0 - - -;
#X connect 0 0 1 1;
#X connect 1 1 2 0;
#X connect 2 0 7 0;
#X connect 3 0 2 1;
#X connect 4 0 1 0;
#X connect 5 0 8 0;
#X connect 6 0 13 0;
#X connect 6 0 8 1;
#X connect 8 0 0 0;
#X connect 9 0 10 0;
#X connect 10 0 3 0;
#X connect 11 0 9 1;
#X connect 12 0 1 2;
#X connect 13 0 14 0;
#X connect 13 0 18 0;
#X connect 15 0 16 0;
#X connect 16 0 13 0;
#X connect 16 1 13 1;
#X connect 17 0 9 0;
#X connect 17 0 20 0;
#X connect 18 0 19 0;
#X connect 18 1 17 1;
#X connect 19 0 17 0;
