#N canvas 569 170 600 531 12;
#X obj 129 184 sig~;
#X obj 110 237 vcf~ 1;
#X obj 110 287 *~;
#X obj 244 237 line;
#X obj 110 85 inlet~;
#X obj 130 119 inlet;
#X obj 245 147 inlet;
#X obj 110 329 outlet~;
#X obj 244 178 pack f f;
#X msg 244 208 \$1 \$2;
#X obj 149 212 r \$1-q;
#X obj 298 147 r \$1-rampTime;
#X connect 0 0 1 1;
#X connect 1 0 2 0;
#X connect 2 0 7 0;
#X connect 3 0 2 1;
#X connect 4 0 1 0;
#X connect 5 0 0 0;
#X connect 6 0 8 0;
#X connect 8 0 9 0;
#X connect 9 0 3 0;
#X connect 10 0 1 2;
#X connect 11 0 8 1;
