#N canvas 44 25 1396 847 12;
#X obj 138 233 sig~;
#X floatatom 377 94 5 0 0 0 - - -;
#X obj 119 286 vcf~ 1;
#X obj 121 477 outlet~;
#X obj 138 202 * 1;
#X obj 379 33 inlet;
#X obj 214 231 sig~;
#X obj 195 284 vcf~ 1;
#X obj 214 200 / 4;
#X obj 431 537 - 100;
#X obj 684 457 vu 15 120 inmeter2 empty -1 -8 0 10 -66577 -1 1 0;
#X obj 353 538 env~ 2048;
#X obj 479 537 s inmeter2;
#X obj 184 35 pink~;
#X obj 121 35 inlet~;
#X obj 120 116 +~;
#X obj 184 85 *~;
#X obj 158 261 r \$1-q;
#X obj 234 259 r \$1-q;
#X obj 236 34 r \$1-gainPinkNoise;
#X obj 357 295 filterMod \$1, f 15;
#X obj 354 334 filterMod \$1, f 15;
#X obj 354 373 filterMod \$1, f 15;
#X obj 493 296 filterMod \$1, f 15;
#X obj 492 333 filterMod \$1, f 15;
#X obj 493 373 filterMod \$1, f 15;
#X obj 630 295 filterMod \$1, f 15;
#X obj 629 334 filterMod \$1, f 15;
#X obj 629 373 filterMod \$1, f 15;
#X obj 769 295 filterMod \$1, f 15;
#X obj 768 335 filterMod \$1, f 15;
#X obj 768 373 filterMod \$1, f 15;
#X msg 676 113 3;
#X msg 729 113 5;
#X msg 781 113 7;
#X msg 834 113 9;
#X msg 696 145 11;
#X msg 748 144 13;
#X msg 801 145 15;
#X msg 854 145 17;
#X msg 719 178 19;
#X msg 772 178 21;
#X msg 824 178 23;
#X msg 877 178 25;
#X obj 871 41 loadbang;
#X connect 0 0 2 1;
#X connect 1 0 4 0;
#X connect 1 0 8 0;
#X connect 1 0 23 1;
#X connect 1 0 20 1;
#X connect 1 0 21 1;
#X connect 1 0 22 1;
#X connect 1 0 24 1;
#X connect 1 0 25 1;
#X connect 1 0 26 1;
#X connect 1 0 27 1;
#X connect 1 0 28 1;
#X connect 1 0 29 1;
#X connect 1 0 30 1;
#X connect 1 0 31 1;
#X connect 2 0 11 0;
#X connect 2 1 3 0;
#X connect 4 0 0 0;
#X connect 5 0 1 0;
#X connect 6 0 7 1;
#X connect 7 1 3 0;
#X connect 8 0 6 0;
#X connect 9 0 12 0;
#X connect 11 0 9 0;
#X connect 13 0 16 0;
#X connect 14 0 15 0;
#X connect 15 0 2 0;
#X connect 15 0 7 0;
#X connect 15 0 23 0;
#X connect 15 0 20 0;
#X connect 15 0 21 0;
#X connect 15 0 22 0;
#X connect 15 0 24 0;
#X connect 15 0 25 0;
#X connect 15 0 26 0;
#X connect 15 0 27 0;
#X connect 15 0 28 0;
#X connect 15 0 29 0;
#X connect 15 0 30 0;
#X connect 15 0 31 0;
#X connect 16 0 15 1;
#X connect 17 0 2 2;
#X connect 18 0 7 2;
#X connect 19 0 16 1;
#X connect 20 0 3 0;
#X connect 20 0 11 0;
#X connect 21 0 3 0;
#X connect 21 0 11 0;
#X connect 22 0 3 0;
#X connect 22 0 11 0;
#X connect 23 0 3 0;
#X connect 23 0 11 0;
#X connect 24 0 3 0;
#X connect 24 0 11 0;
#X connect 25 0 3 0;
#X connect 25 0 11 0;
#X connect 26 0 3 0;
#X connect 26 0 11 0;
#X connect 27 0 3 0;
#X connect 27 0 11 0;
#X connect 28 0 3 0;
#X connect 28 0 11 0;
#X connect 29 0 3 0;
#X connect 29 0 11 0;
#X connect 30 0 3 0;
#X connect 30 0 11 0;
#X connect 31 0 3 0;
#X connect 31 0 11 0;
#X connect 32 0 20 2;
#X connect 33 0 23 2;
#X connect 34 0 26 2;
#X connect 35 0 29 2;
#X connect 36 0 21 2;
#X connect 37 0 24 2;
#X connect 38 0 27 2;
#X connect 39 0 30 2;
#X connect 40 0 22 2;
#X connect 41 0 25 2;
#X connect 42 0 28 2;
#X connect 43 0 31 2;
#X connect 44 0 32 0;
#X connect 44 0 33 0;
#X connect 44 0 34 0;
#X connect 44 0 35 0;
#X connect 44 0 39 0;
#X connect 44 0 38 0;
#X connect 44 0 37 0;
#X connect 44 0 36 0;
#X connect 44 0 40 0;
#X connect 44 0 41 0;
#X connect 44 0 42 0;
#X connect 44 0 43 0;
