#N canvas 547 43 897 633 12;
#X obj 64 429 filterModBand \$1;
#X text 17 404 signal;
#X text 82 403 freq;
#X text 142 402 gain;
#X obj 64 338 inlet~;
#X msg 118 384 63;
#X msg 288 402 160;
#X msg 478 399 400;
#X msg 662 401 1000;
#X msg 291 522 2500;
#X msg 480 522 6250;
#X msg 667 520 16000;
#X obj 108 122 vsl 15 128 0 1 0 0 empty \$1-gainB1 empty 0 -9 0 10
-262144 -1 -1 0 1;
#X obj 145 122 vsl 15 128 0 1 0 0 empty \$1-gainB2 empty 0 -9 0 10
-262144 -1 -1 0 1;
#X obj 183 122 vsl 15 128 0 1 0 0 empty \$1-gainB3 empty 0 -9 0 10
-262144 -1 -1 0 1;
#X obj 221 122 vsl 15 128 0 1 0 0 empty \$1-gainB4 empty 0 -9 0 10
-262144 -1 -1 0 1;
#X obj 257 122 vsl 15 128 0 1 0 0 empty \$1-gainB5 empty 0 -9 0 10
-262144 -1 -1 0 1;
#X obj 295 122 vsl 15 128 0 1 0 0 empty \$1-gainB6 empty 0 -9 0 10
-262144 -1 -1 0 1;
#X obj 333 122 vsl 15 128 0 1 0 0 empty \$1-gainB7 empty 0 -9 0 10
-262144 -1 -1 12700 1;
#X text 105 258 63;
#X text 135 258 160;
#X text 173 258 400;
#X text 217 258 1K;
#X text 240 258 2.5K;
#X text 272 258 6.25K;
#X text 324 258 16K;
#X obj 385 122 vsl 15 128 0 1 0 0 empty \$1-gainB7 empty 0 -9 0 10
-262144 -1 -1 12700 1;
#X text 356 257 Master;
#X obj 64 458 throw~ outBank;
#X obj 58 593 catch~ outBank;
#X obj 58 622 outlet~;
#X obj 234 428 filterModBand \$1;
#X obj 234 457 throw~ outBank;
#X obj 425 428 filterModBand \$1;
#X obj 425 457 throw~ outBank;
#X obj 609 427 filterModBand \$1;
#X obj 609 456 throw~ outBank;
#X obj 237 547 filterModBand \$1;
#X obj 237 576 throw~ outBank;
#X obj 426 546 filterModBand \$1;
#X obj 426 575 throw~ outBank;
#X obj 613 546 filterModBand \$1;
#X obj 613 575 throw~ outBank;
#X obj 462 256 loadbang;
#X obj 174 340 * 1;
#X obj 207 340 t b f;
#X obj 343 399 * 1;
#X obj 376 399 t b f;
#X obj 534 398 * 1;
#X obj 567 398 t b f;
#X obj 718 400 * 1;
#X obj 750 400 t b f;
#X obj 346 521 * 1;
#X obj 379 521 t b f;
#X obj 535 520 * 1;
#X obj 568 520 t b f;
#X obj 722 521 * 1;
#X obj 755 521 t b f;
#X obj 431 89 loadbang;
#X msg 432 116 0;
#X obj 661 144 vsl 15 128 0 20000 0 0 empty empty empty 0 -9 0 10 -262144
-1 -1 700 1;
#X connect 0 0 28 0;
#X connect 4 0 41 0;
#X connect 4 0 0 0;
#X connect 4 0 31 0;
#X connect 4 0 33 0;
#X connect 4 0 35 0;
#X connect 4 0 37 0;
#X connect 4 0 39 0;
#X connect 5 0 0 1;
#X connect 6 0 31 1;
#X connect 7 0 33 1;
#X connect 8 0 35 1;
#X connect 9 0 37 1;
#X connect 10 0 39 1;
#X connect 11 0 41 1;
#X connect 12 0 44 0;
#X connect 13 0 46 0;
#X connect 14 0 48 0;
#X connect 15 0 50 0;
#X connect 16 0 52 0;
#X connect 17 0 54 0;
#X connect 18 0 56 0;
#X connect 26 0 45 0;
#X connect 26 0 47 0;
#X connect 26 0 49 0;
#X connect 26 0 51 0;
#X connect 26 0 53 0;
#X connect 26 0 55 0;
#X connect 26 0 57 0;
#X connect 29 0 30 0;
#X connect 31 0 32 0;
#X connect 33 0 34 0;
#X connect 35 0 36 0;
#X connect 37 0 38 0;
#X connect 39 0 40 0;
#X connect 41 0 42 0;
#X connect 43 0 5 0;
#X connect 43 0 6 0;
#X connect 43 0 7 0;
#X connect 43 0 8 0;
#X connect 43 0 9 0;
#X connect 43 0 10 0;
#X connect 43 0 11 0;
#X connect 44 0 0 2;
#X connect 45 0 44 0;
#X connect 45 1 44 1;
#X connect 46 0 31 2;
#X connect 47 0 46 0;
#X connect 47 1 46 1;
#X connect 48 0 33 2;
#X connect 49 0 48 0;
#X connect 49 1 48 1;
#X connect 50 0 35 2;
#X connect 51 0 50 0;
#X connect 51 1 50 1;
#X connect 52 0 37 2;
#X connect 53 0 52 0;
#X connect 53 1 52 1;
#X connect 54 0 39 2;
#X connect 55 0 54 0;
#X connect 55 1 54 1;
#X connect 56 0 41 2;
#X connect 57 0 56 0;
#X connect 57 1 56 1;
#X connect 58 0 59 0;
#X connect 59 0 26 0;
#X connect 60 0 41 1;
#X coords 0 -1 1 1 310 180 1 100 100;
