#N canvas 872 63 553 539 12;
#X obj 154 293 osc~;
#X obj 154 267 +~;
#X obj 155 239 *~;
#X obj 215 205 * 0.2;
#X obj 267 119 t b f;
#X obj 155 92 inlet~;
#X obj 216 91 inlet;
#X obj 267 91 inlet;
#X obj 154 323 outlet~;
#X obj 352 328 bang~;
#X obj 352 354 t b b;
#X obj 352 380 timer;
#X floatatom 352 409 5 0 0 0 - - -;
#X obj 352 437 bng 15 250 50 0 empty empty empty 0 -6 0 8 -262144 -1
-1;
#X obj 359 147 tgl 15 0 empty empty empty 17 7 0 10 -262144 -1 -1 1
1;
#X obj 340 114 inlet;
#X msg 414 150 set \$1 1;
#X obj 414 116 inlet;
#X obj 341 213 switch~ 4096 1 1;
#X connect 0 0 8 0;
#X connect 1 0 0 0;
#X connect 2 0 1 0;
#X connect 3 0 2 1;
#X connect 4 0 3 0;
#X connect 4 1 3 1;
#X connect 5 0 2 0;
#X connect 6 0 3 0;
#X connect 6 0 1 1;
#X connect 7 0 4 0;
#X connect 9 0 10 0;
#X connect 10 0 11 0;
#X connect 10 1 11 1;
#X connect 11 0 12 0;
#X connect 12 0 13 0;
#X connect 14 0 18 0;
#X connect 15 0 14 0;
#X connect 15 0 18 0;
#X connect 16 0 18 0;
#X connect 17 0 16 0;
