#N canvas 248 291 1373 583 12;
#X obj 1028 135 soundfiler;
#X floatatom 1028 158 12 0 0 0 - - -;
#X obj 1026 228 array define grainArray;
#X floatatom 106 338 10 0 0 0 - - -;
#X obj 733 351 s grain_dur;
#X floatatom 735 320 5 0 0 0 - - -;
#X obj 106 453 *~ 0.5;
#X msg 106 374 next \$1;
#X obj 106 217 phasor~;
#X obj 106 263 *~;
#X obj 1028 181 send fileDuration;
#X obj 198 204 receive fileDuration;
#X floatatom 198 228 10 0 0 0 - - -;
#X obj 106 305 snapshot~;
#X obj 347 237 tgl 15 0 empty empty on/off 17 7 0 10 -261682 -1 -1
1 1;
#X obj 347 290 metro 125;
#X floatatom 106 72 5 0 0 0 - - -;
#X obj 106 11 receive fileDuration;
#X obj 106 35 expr $f2 / $f1;
#X obj 258 10 loadbang;
#X obj 258 34 samplerate~;
#X obj 105 149 * 1, f 6;
#X obj 111 124 t b f;
#X floatatom 472 89 5 0 0 0 - - -;
#X floatatom 406 263 5 0 0 0 - - -;
#X obj 347 314 random 10;
#X obj 347 349 + 50;
#X floatatom 434 311 5 0 0 0 - - -;
#X floatatom 569 317 5 0 0 0 - - -;
#X obj 572 293 hsl 128 15 10 2000 1 0 empty empty empty -2 -8 0 10
-261682 -1 -1 6092 1;
#X obj 737 293 hsl 128 15 20 2000 0 0 empty empty empty -2 -8 0 10
-262130 -1 -1 1155 1;
#X obj 475 67 hsl 128 15 -2 2 0 0 empty empty empty -2 -8 0 10 -204786
-1 -1 9525 1;
#X obj 472 21 loadbang;
#X floatatom 906 322 5 0 0 0 - - -;
#X obj 908 295 hsl 128 15 0.1 2 0 0 empty empty empty -2 -8 0 10 -204800
-1 -1 10494 1;
#X obj 904 353 s grain_transpose;
#X msg 1027 69 read -resize out_upsample.wav grainArray;
#X msg 1069 99 read -resize out2_upsample.wav grainArray;
#X obj 106 429 clone grain 16;
#X msg 472 43 1;
#X obj 528 256 inlet;
#X obj 672 251 inlet;
#X obj 843 249 inlet;
#X obj 304 166 inlet;
#X obj 105 505 outlet~;
#X text 1144 37 comment;
#X text 1026 251 comment;
#X text 945 324 comment;
#X obj 481 312 r jitter;
#X obj 1024 14 inlet;
#X obj 1174 181 print file;
#X obj 1078 11 loadbang;
#X connect 0 0 1 0;
#X connect 0 0 50 0;
#X connect 1 0 10 0;
#X connect 3 0 7 0;
#X connect 5 0 4 0;
#X connect 6 0 44 0;
#X connect 7 0 38 0;
#X connect 8 0 9 0;
#X connect 9 0 13 0;
#X connect 11 0 12 0;
#X connect 12 0 9 1;
#X connect 13 0 3 0;
#X connect 14 0 15 0;
#X connect 15 0 13 0;
#X connect 15 0 25 0;
#X connect 16 0 21 0;
#X connect 17 0 18 0;
#X connect 18 0 16 0;
#X connect 19 0 20 0;
#X connect 20 0 18 1;
#X connect 21 0 8 0;
#X connect 22 0 21 0;
#X connect 22 1 21 1;
#X connect 23 0 22 0;
#X connect 24 0 15 1;
#X connect 25 0 26 0;
#X connect 26 0 24 0;
#X connect 27 0 25 1;
#X connect 28 0 26 1;
#X connect 29 0 28 0;
#X connect 30 0 5 0;
#X connect 31 0 23 0;
#X connect 32 0 39 0;
#X connect 33 0 35 0;
#X connect 34 0 33 0;
#X connect 36 0 0 0;
#X connect 37 0 0 0;
#X connect 38 0 6 0;
#X connect 39 0 31 0;
#X connect 40 0 29 0;
#X connect 41 0 30 0;
#X connect 42 0 34 0;
#X connect 43 0 14 0;
#X connect 48 0 27 0;
#X connect 49 0 36 0;
#X connect 51 0 36 0;
